# xmcd CD database file
#
# Track frame offsets:
#	150
#	29437
#	53065
#	75920
#	99182
#	113732
#	136425
#	156692
#	178935
#	203805
#	229375
#	247767
#
# Disc length: 3695 seconds
#
# Revision: 1
# Processed by: cddbd v1.5.2PL0 Copyright (c) Steve Scherf et al.
# Submitted via: CDex 1.51
#
DISCID=990e6d0c
DTITLE=Takayuki Yagi - That's The Style!
DYEAR=2001
DGENRE=Jazz
TTITLE0=01-As Long As I Live
TTITLE1=02-Love For Sale
TTITLE2=03-What is This Things Called Love
TTITLE3=04-Someone To Watch Over Me
TTITLE4=05-Take The A Train
TTITLE5=06-Gay's Blues
TTITLE6=07-How High The Moon
TTITLE7=08-This is No Loughing Matter
TTITLE8=09-Personaliy
TTITLE9=10-I Got Rhythm
TTITLE10=11-Smoke Get In Your Eyes
TTITLE11=12-Blues For 3 Strings
EXTD=YEAR: 2001
EXTT0=
EXTT1=
EXTT2=
EXTT3=
EXTT4=
EXTT5=
EXTT6=
EXTT7=
EXTT8=
EXTT9=
EXTT10=
EXTT11=
PLAYORDER=
